<?xml version="1.0" encoding="iso-8859-1"?>
<!-- Uploaded to: SVG Repo, www.svgrepo.com, Generator: SVG Repo Mixer Tools -->
<svg fill="#000000" height="800px" width="800px" version="1.1" id="Layer_1" xmlns="http://www.w3.org/2000/svg" xmlns:xlink="http://www.w3.org/1999/xlink" 
	 viewBox="0 0 512.213 512.213" xml:space="preserve">
<g transform="translate(1 1)">
	<g>
		<path d="M504.173,416.28l-96.427-96.427l-7.253,7.253L297.667,224.28l0,0l-72.533-72.533l0,0l-96.005-96.005l0.432-0.422
			L85.187,10.947c-7.68-7.68-21.333-7.68-29.013,0l-6.827,6.827c-3.413,3.413-5.973,8.533-5.973,14.507s1.707,11.093,5.973,14.507
			l5.604,5.714C40.266,68.072,5.478,110.066,7.533,169.667c0.853,20.48,5.973,41.813,17.067,62.293
			c2.56,5.973,6.827,11.947,11.093,18.773c21.736,33.439,34.456,59.507,10.093,83.821c-1.355-0.125-2.727-0.195-4.119-0.195
			C17.773,334.36-1,353.133-1,377.027c0,20.963,14.452,37.981,34.133,41.841v17.892H16.067c-5.12,0-8.533,3.413-8.533,8.533
			s3.413,8.533,8.533,8.533h17.067v25.6c0,5.12-3.413,8.533-8.533,8.533s-8.533-3.413-8.533-8.533c0-5.12-3.413-8.533-8.533-8.533
			S-1,474.307-1,479.427c0,14.507,11.093,25.6,25.6,25.6c14.507,0,25.6-11.093,25.6-25.6v-25.6h17.067
			c5.12,0,8.533-3.413,8.533-8.533s-3.413-8.533-8.533-8.533H50.2v-17.892c19.681-3.86,34.133-20.878,34.133-41.841
			c0-15.672-8.077-29.141-20.378-36.555c27.393-34.538,2.811-72.239-13.755-98.272c-3.413-6.827-7.68-12.8-10.24-17.92
			c-10.24-17.92-15.36-36.693-15.36-54.613c-1.353-52.085,29.463-90.76,42.299-104.984l14.137,14.414l-0.116,0.116l1.319,1.315
			c-12.484,22.069-1.078,58.659,29.401,89.139c22.187,22.187,47.787,34.133,69.12,34.133c2.1,0,4.199-0.152,6.27-0.439
			c-2.174,15.792,0.315,33.431,1.41,40.546c4.48,25.389,14.188,48.817,26.264,63.995c-10.652,16.883-8.883,39.574,5.309,53.765
			l23.793,23.793l-14.496,20.709c-5.331-2.353-11.151-3.542-16.977-3.542c-11.093,0-21.333,5.12-29.867,12.8
			c-8.533,7.68-12.8,18.773-12.8,29.867s5.12,21.333,12.8,29.867c7.68,8.533,18.773,12.8,29.867,12.8
			c11.093,0,21.333-5.12,29.867-12.8c8.533-7.68,12.8-18.773,12.8-29.867c0-10.682-4.755-21.354-11.964-28.989l13.018-18.597
			l12.599,12.599c7.68,8.533,18.773,12.8,29.867,12.8s21.333-4.267,30.72-12.8c16.213-17.067,16.213-44.373,0-60.587l11.468-11.468
			l24.355,24.285l-5.956,5.956l95.573,96.427c5.12,4.267,11.093,6.827,17.067,6.827s11.947-2.56,17.92-6.827l14.507-14.507
			C513.56,441.027,513.56,425.667,504.173,416.28z M41.667,402.627c-14.507,0-25.6-11.093-25.6-25.6s11.093-25.6,25.6-25.6
			c14.507,0,25.6,11.093,25.6,25.6S56.173,402.627,41.667,402.627z M237.933,445.293c0,6.827-2.56,12.8-7.68,17.92
			c-9.387,9.387-26.453,9.387-35.84,0c-5.12-4.267-7.68-11.093-7.68-17.92s2.56-13.653,7.68-17.92
			c4.267-5.12,11.093-7.68,17.92-7.68c2.328,0,4.653,0.305,6.879,0.9l-13.706,19.58c-3.413,4.267-2.56,9.387,1.707,11.947
			c1.707,0.853,3.413,1.707,5.12,1.707c2.56,0,5.12-0.853,6.827-3.413l13.999-19.998
			C236.337,434.542,237.933,439.915,237.933,445.293z M214.04,187.587l11.947-11.947l23.668,23.668l24.972,24.972l-11.947,11.947
			L214.04,187.587z M201.667,175.213l-96-96l11.947-11.947l96,96L201.667,175.213z M61.293,34.84
			c-0.853-0.853-0.853-1.707-0.853-2.56c0-0.853,0-1.707,0.853-2.56l6.827-6.827c0.853-0.853,1.707-0.853,2.56-0.853
			s1.707,0,2.56,0.853l31.573,32.427L92.867,67.267L61.293,34.84z M123.587,157.72c-22.867-22.867-31.666-49.11-28.226-64.107
			l92.72,92.453C172.936,190.228,146.815,180.949,123.587,157.72z M203.89,202.183l57.937,57.937l0.261-0.261l29.91,29.824
			L280.6,301.08c-14.894-14.149-36.935-15.947-53.65-5.401c-10.432-12.789-18.604-33.025-22.297-55.186
			C201.842,224.191,201.995,210.853,203.89,202.183z M316.44,399.213c-9.387,10.24-25.6,10.24-35.84,0l-15.059-15.059l13.352-19.075
			c3.413-4.267,2.56-8.533-1.707-11.947s-9.387-2.56-11.947,1.707l-11.947,17.067l-21.333-21.333c-10.24-9.387-10.24-25.6,0-35.84
			c5.12-5.12,11.093-7.68,17.92-7.68s13.653,2.56,17.92,7.68l48.64,48.64C326.68,372.76,326.68,388.973,316.44,399.213z
			 M316.867,337.347l-23.893-23.893l11.415-11.415l23.928,23.859L316.867,337.347z M274.2,247.747l11.947-11.947l102.827,102.827
			l-11.947,11.947L274.2,247.747z M491.373,438.467l-14.507,14.507c-2.56,2.56-6.827,2.56-9.387,0L383,368.493l23.893-23.893
			l84.48,84.48C493.933,431.64,493.933,435.907,491.373,438.467z"/>
	</g>
</g>
</svg>